<?xml version="1.0" encoding="UTF-8" standalone="no"?>
<!-- Copyright 2017 mathsisfun.com -->
<svg xmlns="http://www.w3.org/2000/svg" width="288.5" height="113" version="1.1">
<defs>
<marker style="overflow:visible;" orient="auto" id="id01">
<path d="M 0,0 5,-5 -12.5,0 5,5 Z" transform="matrix(0.8,0,0,0.8,10,0)" style="fill:#f57900; stroke:#f57900; stroke-width:1pt;"/>
</marker>
<marker style="overflow:visible;" orient="auto" id="id02">
<path d="M 0,0 5,-5 -12.5,0 5,5 Z" transform="matrix(-0.8,0,0,-0.8,-10,0)" style="fill:#f57900; stroke:#f57900; stroke-width:1pt;"/>
</marker>
</defs>
<path d="M 18.6,0 V 30" style="fill:none; fill-opacity:0.75; stroke:#0000ff; stroke-width:0.54;"/>
<path d="M 49.7,0 V 30" style="fill:none; fill-opacity:0.75; stroke:#0000ff; stroke-width:0.54;"/>
<path d="M 81.2,0 V 30" style="fill:none; fill-opacity:0.75; stroke:#0000ff; stroke-width:0.54;"/>
<path d="M 112.8,0 V 30" style="fill:none; fill-opacity:0.75; stroke:#0000ff; stroke-width:0.54;"/>
<path d="M 144.3,0 V 30" style="fill:none; fill-opacity:0.75; stroke:#0000ff; stroke-width:0.54;"/>
<path d="M 175.8,0 V 30" style="fill:none; fill-opacity:0.75; stroke:#0000ff; stroke-width:0.54;"/>
<path d="M 207.3,0 V 30" style="fill:none; fill-opacity:0.75; stroke:#0000ff; stroke-width:0.54;"/>
<path d="M 238.8,0 V 30" style="fill:none; fill-opacity:0.75; stroke:#0000ff; stroke-width:0.54;"/>
<text x="45.2" y="48.9" style="font-family:Arial; font-size:19.7px; color:black; overflow:visible; fill:#0000ff; stroke-width:0.99px;">3</text>
<text x="76.7" y="48.9" style="font-family:Arial; font-size:19.7px; color:black; overflow:visible; fill:#0000ff; stroke-width:0.99px;">4</text>
<text x="139.3" y="48.9" style="font-family:Arial; font-size:19.7px; color:black; overflow:visible; fill:#0000ff; stroke-width:0.99px;">6</text>
<text x="170.5" y="48.9" style="font-family:Arial; font-size:19.7px; color:black; overflow:visible; fill:#0000ff; stroke-width:0.99px;">7</text>
<text x="233.5" y="48.9" style="font-family:Arial; font-size:19.7px; color:black; overflow:visible; fill:#0000ff; stroke-width:0.99px;">9</text>
<path d="M 270.3,0 V 30" style="fill:none; fill-opacity:0.75; stroke:#0000ff; stroke-width:0.54;"/>
<path d="M 0,16.7 H 288.5" style="fill:none; fill-opacity:0.75; stroke:#0000ff; stroke-width:1.43;"/>
<text x="101.1" y="110.4" style="font-family:Arial; font-size:21.3px; font-style:italic; color:black; overflow:visible; fill:#f57900; stroke-width:0.99px;">9 − 3 = 6</text>
<path d="M 49.7,62.2 H 238.4" style="marker-start:url(#id01); marker-end:url(#id02); fill:none; fill-opacity:0.75; stroke:#f57900; stroke-width:1.33;"/>
<text x="108" y="86" style="font-family:Arial; font-size:24.3px; font-style:italic; color:black; overflow:visible; fill:#f57900; stroke-width:0.99px;">Range</text>
</svg>
